<svg width="22" height="23" viewBox="0 0 22 23" fill="none" xmlns="http://www.w3.org/2000/svg">
<path d="M11 0.890625C9.48241 0.890625 8.0575 1.17683 6.72528 1.74924C5.39306 2.33794 4.22889 3.12933 3.23278 4.1234C2.2387 5.11951 1.44731 6.28368 0.858611 7.6159C0.286204 8.94812 0 10.373 0 11.8906C0 13.4082 0.286204 14.8331 0.858611 16.1653C1.44731 17.4976 2.2387 18.6617 3.23278 19.6578C4.22889 20.6519 5.39306 21.4433 6.72528 22.032C8.0575 22.6044 9.48241 22.8906 11 22.8906C12.5176 22.8906 13.9425 22.6044 15.2747 22.032C16.6069 21.4433 17.7711 20.6519 18.7672 19.6578C19.7613 18.6617 20.5527 17.4976 21.1414 16.1653C21.7138 14.8331 22 13.4082 22 11.8906C22 10.373 21.7138 8.94812 21.1414 7.6159C20.5527 6.28368 19.7613 5.11951 18.7672 4.1234C17.7711 3.12933 16.6069 2.33794 15.2747 1.74924C13.9425 1.17683 12.5176 0.890625 11 0.890625ZM11 21.3231C9.6963 21.3231 8.47204 21.0726 7.32722 20.5715C6.19463 20.0846 5.19852 19.4114 4.33889 18.5517C3.47926 17.6921 2.80602 16.696 2.31917 15.5634C1.81806 14.4186 1.5675 13.1943 1.5675 11.8906C1.5675 10.5869 1.81806 9.36266 2.31917 8.21785C2.80602 7.08525 3.47926 6.08914 4.33889 5.22951C5.19852 4.36988 6.19463 3.69664 7.32722 3.20979C8.47204 2.70868 9.6963 2.45812 11 2.45812C12.3037 2.45812 13.528 2.70868 14.6728 3.20979C15.8054 3.69664 16.8015 4.36988 17.6611 5.22951C18.5207 6.08914 19.194 7.08525 19.6808 8.21785C20.1819 9.36266 20.4325 10.5869 20.4325 11.8906C20.4325 13.1943 20.1819 14.4186 19.6808 15.5634C19.194 16.696 18.5207 17.6921 17.6611 18.5517C16.8015 19.4114 15.8054 20.0846 14.6728 20.5715C13.528 21.0726 12.3037 21.3231 11 21.3231ZM16.6497 11.6981H11.495V6.0484C11.495 5.83248 11.4156 5.64914 11.2567 5.4984C11.0998 5.34766 10.9144 5.27229 10.7006 5.27229C10.4846 5.27229 10.2982 5.34766 10.1414 5.4984C9.9825 5.64914 9.90306 5.83248 9.90306 6.0484V12.4926C9.90306 12.7065 9.9825 12.8928 10.1414 13.0517C10.2982 13.2086 10.4846 13.287 10.7006 13.287H16.6497C16.8656 13.287 17.052 13.2086 17.2089 13.0517C17.3657 12.8928 17.4442 12.7065 17.4442 12.4926C17.4442 12.2766 17.3657 12.0903 17.2089 11.9334C17.052 11.7766 16.8656 11.6981 16.6497 11.6981Z" fill="#3554D1"/>
</svg>
