<svg width="10" height="18" viewBox="0 0 10 18" fill="none" xmlns="http://www.w3.org/2000/svg">
<path fill-rule="evenodd" clip-rule="evenodd" d="M5.75024 1.79999C5.75024 1.38577 5.41446 1.04999 5.00024 1.04999C4.58603 1.04999 4.25024 1.38577 4.25024 1.79999V3.46612C3.52614 3.51319 2.77524 3.67161 2.16264 4.05317C1.51638 4.4557 1.0579 5.08893 0.953878 5.96471C0.871212 6.66068 0.947825 7.27522 1.19335 7.80521C1.43979 8.33716 1.82853 8.72373 2.26971 9.00777C3.10624 9.54636 4.22463 9.76589 5.13977 9.94552L5.1481 9.94716L5.22986 9.96319C5.6838 10.0522 6.09969 10.1337 6.47854 10.2361C6.8815 10.345 7.19158 10.4649 7.4161 10.6063C7.6297 10.7409 7.74141 10.8787 7.79862 11.0309C7.8585 11.1902 7.89191 11.4544 7.7836 11.8968C7.70194 12.2303 7.47421 12.4935 7.04501 12.6966C6.59926 12.9076 5.98735 13.0239 5.28679 13.0461C3.86747 13.091 2.37602 12.7453 1.74991 12.4153C1.38347 12.2222 0.929856 12.3627 0.736742 12.7291C0.543628 13.0956 0.684138 13.5492 1.05058 13.7423C1.76219 14.1173 2.98751 14.4251 4.25024 14.5198V16.2C4.25024 16.6142 4.58603 16.95 5.00024 16.95C5.41446 16.95 5.75024 16.6142 5.75024 16.2V14.5223C6.4266 14.468 7.10379 14.3284 7.68677 14.0524C8.40609 13.7119 9.02382 13.1387 9.24056 12.2535C9.39726 11.6135 9.39897 11.0253 9.2027 10.5031C9.00374 9.97386 8.63481 9.60119 8.21553 9.3371C7.80716 9.07988 7.33211 8.91302 6.86991 8.78809C6.43783 8.67132 5.97237 8.58013 5.53297 8.49405L5.43703 8.47525C4.44775 8.28106 3.63322 8.10164 3.08172 7.74657C2.82762 7.58297 2.65772 7.39772 2.55439 7.17468C2.45015 6.94967 2.38587 6.62604 2.44341 6.14163C2.49018 5.74781 2.6698 5.50446 2.95568 5.32639C3.27431 5.12793 3.74826 5.00165 4.35011 4.96279C5.55174 4.88521 6.97966 5.17244 7.87512 5.47362C8.26773 5.60567 8.69304 5.39445 8.82508 5.00184C8.95713 4.60924 8.74591 4.18393 8.35331 4.05188C7.67768 3.82464 6.73338 3.59977 5.75024 3.50149V1.79999Z" fill="white"/>
<path d="M4.25024 3.46612L4.28268 3.96506C4.54567 3.94797 4.75024 3.72967 4.75024 3.46612H4.25024ZM2.16264 4.05317L1.8983 3.62877L1.8983 3.62877L2.16264 4.05317ZM0.953878 5.96471L0.457368 5.90574L0.457368 5.90574L0.953878 5.96471ZM1.19335 7.80521L1.64703 7.59503L1.64703 7.59503L1.19335 7.80521ZM2.26971 9.00777L2.54038 8.58737L2.54038 8.58737L2.26971 9.00777ZM5.13977 9.94552L5.04347 10.4362L5.04348 10.4362L5.13977 9.94552ZM5.1481 9.94716L5.05181 10.4378L5.05186 10.4378L5.1481 9.94716ZM5.22986 9.96319L5.13362 10.4538L5.13366 10.4539L5.22986 9.96319ZM6.47854 10.2361L6.34809 10.7188L6.34809 10.7188L6.47854 10.2361ZM7.4161 10.6063L7.68258 10.1832L7.68258 10.1832L7.4161 10.6063ZM7.79862 11.0309L8.26664 10.855L8.26664 10.855L7.79862 11.0309ZM7.7836 11.8968L7.29794 11.7779L7.29794 11.7779L7.7836 11.8968ZM7.04501 12.6966L7.25893 13.1486L7.25893 13.1485L7.04501 12.6966ZM5.28679 13.0461L5.30261 13.5458L5.30261 13.5458L5.28679 13.0461ZM1.74991 12.4153L1.5168 12.8576L1.5168 12.8576L1.74991 12.4153ZM0.736742 12.7291L1.17908 12.9622L1.17908 12.9622L0.736742 12.7291ZM1.05058 13.7423L0.817471 14.1846L0.817471 14.1846L1.05058 13.7423ZM4.25024 14.5198H4.75024C4.75024 14.2582 4.54855 14.0408 4.28765 14.0212L4.25024 14.5198ZM5.75024 14.5223L5.71028 14.0239C5.45047 14.0447 5.25024 14.2616 5.25024 14.5223H5.75024ZM7.68677 14.0524L7.47285 13.6005L7.47285 13.6005L7.68677 14.0524ZM9.24056 12.2535L9.72622 12.3724L9.72622 12.3724L9.24056 12.2535ZM9.2027 10.5031L9.67072 10.3272L9.67072 10.3272L9.2027 10.5031ZM8.21553 9.3371L8.48201 8.91403L8.48201 8.91403L8.21553 9.3371ZM6.86991 8.78809L7.00037 8.30541L7.00037 8.30541L6.86991 8.78809ZM5.53297 8.49405L5.43678 8.98471L5.43685 8.98473L5.53297 8.49405ZM5.43703 8.47525L5.34072 8.96588L5.34084 8.96591L5.43703 8.47525ZM3.08172 7.74657L2.81105 8.16697L2.81105 8.16697L3.08172 7.74657ZM2.55439 7.17468L2.10071 7.38486L2.10071 7.38486L2.55439 7.17468ZM2.44341 6.14163L2.93992 6.20061L2.93992 6.20061L2.44341 6.14163ZM2.95568 5.32639L2.69133 4.90199L2.69133 4.90199L2.95568 5.32639ZM4.35011 4.96279L4.38232 5.46175L4.38233 5.46175L4.35011 4.96279ZM7.87512 5.47362L7.71573 5.94753L7.71573 5.94753L7.87512 5.47362ZM8.82508 5.00184L8.35117 4.84245L8.35117 4.84245L8.82508 5.00184ZM8.35331 4.05188L8.5127 3.57797L8.5127 3.57797L8.35331 4.05188ZM5.75024 3.50149H5.25024C5.25024 3.75838 5.4449 3.97346 5.70051 3.99901L5.75024 3.50149ZM5.00024 1.54999C5.13831 1.54999 5.25024 1.66192 5.25024 1.79999H6.25024C6.25024 1.10963 5.6906 0.549988 5.00024 0.549988V1.54999ZM4.75024 1.79999C4.75024 1.66192 4.86217 1.54999 5.00024 1.54999V0.549988C4.30989 0.549988 3.75024 1.10963 3.75024 1.79999H4.75024ZM4.75024 3.46612V1.79999H3.75024V3.46612H4.75024ZM2.42699 4.47758C2.94143 4.15715 3.59971 4.00946 4.28268 3.96506L4.21781 2.96717C3.45258 3.01692 2.60905 3.18607 1.8983 3.62877L2.42699 4.47758ZM1.45039 6.02368C1.5353 5.30878 1.90065 4.80542 2.42699 4.47758L1.8983 3.62877C1.13212 4.10599 0.5805 4.86907 0.457368 5.90574L1.45039 6.02368ZM1.64703 7.59503C1.44864 7.16679 1.37608 6.64925 1.45039 6.02368L0.457368 5.90574C0.36634 6.67211 0.447009 7.38366 0.739671 8.01539L1.64703 7.59503ZM2.54038 8.58737C2.16144 8.3434 1.84572 8.02391 1.64703 7.59503L0.739671 8.01539C1.03386 8.65042 1.49562 9.10406 1.99905 9.42818L2.54038 8.58737ZM5.23608 9.45489C4.29857 9.27086 3.28153 9.06455 2.54038 8.58737L1.99905 9.42818C2.93095 10.0282 4.1507 10.2609 5.04347 10.4362L5.23608 9.45489ZM5.2444 9.45652L5.23607 9.45488L5.04348 10.4362L5.05181 10.4378L5.2444 9.45652ZM5.3261 9.47254L5.24435 9.45651L5.05186 10.4378L5.13362 10.4538L5.3261 9.47254ZM6.609 9.75346C6.2099 9.64559 5.77576 9.56071 5.32606 9.47254L5.13366 10.4539C5.59185 10.5437 5.98947 10.6219 6.34809 10.7188L6.609 9.75346ZM7.68258 10.1832C7.39668 10.0032 7.03152 9.86765 6.609 9.75346L6.34809 10.7188C6.73147 10.8224 6.98648 10.9266 7.14962 11.0294L7.68258 10.1832ZM8.26664 10.855C8.16243 10.5778 7.96547 10.3614 7.68258 10.1832L7.14962 11.0294C7.22492 11.0768 7.26677 11.1151 7.2904 11.142C7.31238 11.167 7.32327 11.1874 7.33059 11.2069L8.26664 10.855ZM8.26925 12.0157C8.3938 11.507 8.37188 11.1349 8.26664 10.855L7.33059 11.2069C7.34513 11.2455 7.39002 11.4018 7.29794 11.7779L8.26925 12.0157ZM7.25893 13.1485C7.78664 12.8988 8.14295 12.5316 8.26925 12.0157L7.29794 11.7779C7.26094 11.929 7.16178 12.0882 6.83109 12.2447L7.25893 13.1485ZM5.30261 13.5458C6.03963 13.5225 6.72748 13.4001 7.25893 13.1486L6.83109 12.2447C6.47104 12.4151 5.93506 12.5253 5.27098 12.5463L5.30261 13.5458ZM1.5168 12.8576C1.89184 13.0553 2.47539 13.2358 3.12558 13.3621C3.78443 13.49 4.54979 13.5696 5.30261 13.5458L5.27098 12.5463C4.60448 12.5674 3.91445 12.4966 3.31622 12.3804C2.70932 12.2626 2.23409 12.1053 1.98302 11.973L1.5168 12.8576ZM1.17908 12.9622C1.24345 12.8401 1.39465 12.7933 1.5168 12.8576L1.98302 11.973C1.37228 11.6511 0.616264 11.8853 0.294407 12.496L1.17908 12.9622ZM1.28369 13.3C1.16154 13.2356 1.11471 13.0844 1.17908 12.9622L0.294408 12.496C-0.0274496 13.1068 0.206734 13.8628 0.817471 14.1846L1.28369 13.3ZM4.28765 14.0212C3.06401 13.9294 1.91312 13.6317 1.28369 13.3L0.817471 14.1846C1.61127 14.603 2.91101 14.9207 4.21284 15.0184L4.28765 14.0212ZM4.75024 16.2V14.5198H3.75024V16.2H4.75024ZM5.00024 16.45C4.86217 16.45 4.75024 16.3381 4.75024 16.2H3.75024C3.75024 16.8903 4.30989 17.45 5.00024 17.45V16.45ZM5.25024 16.2C5.25024 16.3381 5.13831 16.45 5.00024 16.45V17.45C5.6906 17.45 6.25024 16.8903 6.25024 16.2H5.25024ZM5.25024 14.5223V16.2H6.25024V14.5223H5.25024ZM7.47285 13.6005C6.96242 13.8421 6.34977 13.9726 5.71028 14.0239L5.79021 15.0207C6.50343 14.9635 7.24516 14.8146 7.90069 14.5043L7.47285 13.6005ZM8.75491 12.1346C8.58336 12.8352 8.09627 13.3054 7.47285 13.6005L7.90068 14.5043C8.71592 14.1184 9.46428 13.4422 9.72622 12.3724L8.75491 12.1346ZM8.73467 10.6791C8.88543 11.0801 8.89553 11.5603 8.75491 12.1346L9.72622 12.3724C9.899 11.6667 9.91252 10.9704 9.67072 10.3272L8.73467 10.6791ZM7.94905 9.76017C8.30004 9.98125 8.58305 10.2757 8.73467 10.6791L9.67072 10.3272C9.42443 9.672 8.96958 9.22113 8.48201 8.91403L7.94905 9.76017ZM6.73946 9.27078C7.18179 9.39033 7.60191 9.54152 7.94905 9.76017L8.48201 8.91403C8.01242 8.61825 7.48244 8.43571 7.00037 8.30541L6.73946 9.27078ZM5.43685 8.98473C5.87965 9.07147 6.3274 9.15941 6.73946 9.27078L7.00037 8.30541C6.54826 8.18322 6.0651 8.08879 5.62909 8.00338L5.43685 8.98473ZM5.34084 8.96591L5.43678 8.98471L5.62916 8.00339L5.53322 7.98458L5.34084 8.96591ZM2.81105 8.16697C3.45883 8.58403 4.37727 8.77676 5.34072 8.96588L5.53334 7.98461C4.51823 7.78535 3.80762 7.61926 3.35239 7.32616L2.81105 8.16697ZM2.10071 7.38486C2.25164 7.71064 2.49434 7.96306 2.81105 8.16697L3.35239 7.32616C3.1609 7.20288 3.0638 7.08479 3.00807 6.9645L2.10071 7.38486ZM1.9469 6.08266C1.88096 6.6378 1.94945 7.05835 2.10071 7.38486L3.00807 6.9645C2.95086 6.841 2.89078 6.61429 2.93992 6.20061L1.9469 6.08266ZM2.69133 4.90199C2.28483 5.15518 2.01269 5.52873 1.9469 6.08266L2.93992 6.20061C2.96768 5.96688 3.05478 5.85373 3.22003 5.7508L2.69133 4.90199ZM4.3179 4.46383C3.67499 4.50534 3.10827 4.64229 2.69133 4.90199L3.22003 5.7508C3.44035 5.61357 3.82153 5.49796 4.38232 5.46175L4.3179 4.46383ZM8.03452 4.99971C7.09804 4.68473 5.60307 4.38086 4.3179 4.46383L4.38233 5.46175C5.5004 5.38957 6.86128 5.66015 7.71573 5.94753L8.03452 4.99971ZM8.35117 4.84245C8.30716 4.97332 8.16539 5.04372 8.03452 4.99971L7.71573 5.94753C8.37007 6.16761 9.07892 5.81558 9.299 5.16124L8.35117 4.84245ZM8.19391 4.5258C8.32478 4.56981 8.39519 4.71158 8.35117 4.84245L9.299 5.16124C9.51908 4.5069 9.16704 3.79805 8.5127 3.57797L8.19391 4.5258ZM5.70051 3.99901C6.64427 4.09336 7.55183 4.30984 8.19391 4.5258L8.5127 3.57797C7.80353 3.33945 6.82249 3.10619 5.79998 3.00397L5.70051 3.99901ZM5.25024 1.79999V3.50149H6.25024V1.79999H5.25024Z" fill="#0046FB"/>
</svg>
