<svg width="23" height="23" viewBox="0 0 23 23" fill="none" xmlns="http://www.w3.org/2000/svg">
<path d="M11.957 9.78529C12.9878 9.78529 13.8688 9.41965 14.6001 8.68835C15.3293 7.95909 15.694 7.07909 15.694 6.04835C15.694 5.01557 15.3293 4.13455 14.6001 3.40529C13.8688 2.674 12.9878 2.30835 11.957 2.30835C10.9263 2.30835 10.0453 2.674 9.31398 3.40529C8.58472 4.13455 8.22009 5.01557 8.22009 6.04835C8.22009 7.07909 8.58472 7.95909 9.31398 8.68835C10.0453 9.41965 10.9263 9.78529 11.957 9.78529ZM11.957 3.59779C12.6293 3.59779 13.2057 3.83715 13.6865 4.31585C14.1672 4.79659 14.4076 5.37409 14.4076 6.04835C14.4076 6.72057 14.1672 7.29705 13.6865 7.77779C13.2057 8.2565 12.6293 8.49585 11.957 8.49585C11.2848 8.49585 10.7083 8.2565 10.2276 7.77779C9.74685 7.29705 9.50648 6.72057 9.50648 6.04835C9.50648 5.37409 9.74685 4.79659 10.2276 4.31585C10.7083 3.83715 11.2848 3.59779 11.957 3.59779ZM19.5195 9.78529C20.1632 9.78529 20.7183 9.55205 21.1848 9.08557C21.6493 8.62113 21.8815 8.06705 21.8815 7.42335C21.8815 6.77761 21.6493 6.22252 21.1848 5.75807C20.7183 5.29159 20.1632 5.05835 19.5195 5.05835C18.8758 5.05835 18.3207 5.29159 17.8543 5.75807C17.3898 6.22252 17.1576 6.77761 17.1576 7.42335C17.1576 8.06705 17.3898 8.62113 17.8543 9.08557C18.3207 9.55205 18.8758 9.78529 19.5195 9.78529ZM19.5195 6.34779C19.821 6.34779 20.0756 6.45168 20.2834 6.65946C20.4912 6.86724 20.5951 7.12187 20.5951 7.42335C20.5951 7.72279 20.4912 7.97641 20.2834 8.18418C20.0756 8.39196 19.821 8.49585 19.5195 8.49585C19.2181 8.49585 18.9634 8.39196 18.7556 8.18418C18.5479 7.97641 18.444 7.72279 18.444 7.42335C18.444 7.12187 18.5479 6.86724 18.7556 6.65946C18.9634 6.45168 19.2181 6.34779 19.5195 6.34779ZM20.0359 11.2458H19.0459C18.4593 11.2458 17.9296 11.4037 17.457 11.7195C16.9844 12.0332 16.6259 12.4416 16.3815 12.9447C15.9089 12.4131 15.3436 11.9975 14.6856 11.6981C14.0277 11.3966 13.3188 11.2458 12.559 11.2458H11.3551C10.5953 11.2458 9.88638 11.3966 9.22842 11.6981C8.57046 11.9975 8.00518 12.4131 7.53259 12.9447C7.28814 12.4416 6.92962 12.0332 6.45703 11.7195C5.98444 11.4037 5.45481 11.2458 4.86814 11.2458H3.87814C3.07759 11.2458 2.39009 11.529 1.81564 12.0953C1.24323 12.6616 0.957031 13.345 0.957031 14.1456V18.8297C0.957031 19.1883 1.07925 19.4887 1.3237 19.7311C1.56611 19.9756 1.86657 20.0978 2.22509 20.0978H6.15759C6.20036 20.4848 6.36435 20.8108 6.64953 21.0756C6.93675 21.3404 7.27388 21.4728 7.66092 21.4728H16.2531C16.6402 21.4728 16.9773 21.3404 17.2645 21.0756C17.5497 20.8108 17.7137 20.4848 17.7565 20.0978H21.6462C22.0047 20.0978 22.3123 19.9684 22.569 19.7097C22.8277 19.4531 22.957 19.1455 22.957 18.787V14.1456C22.957 13.345 22.6708 12.6616 22.0984 12.0953C21.526 11.529 20.8385 11.2458 20.0359 11.2458ZM2.24648 18.8083V14.1456C2.24648 13.7015 2.40435 13.3226 2.72009 13.0089C3.03379 12.6932 3.41981 12.5353 3.87814 12.5353H4.86814C5.32648 12.5353 5.71249 12.6932 6.0262 13.0089C6.34194 13.3226 6.49981 13.7015 6.49981 14.1456V14.5978C6.28592 15.1559 6.1749 15.6968 6.16675 16.2203C6.16064 16.7418 6.15759 17.6045 6.15759 18.8083H2.24648ZM16.4701 19.9695C16.4701 20.0265 16.4477 20.0764 16.4029 20.1192C16.3601 20.162 16.3102 20.1833 16.2531 20.1833H7.66092C7.60388 20.1833 7.55398 20.162 7.5112 20.1192C7.46638 20.0764 7.44398 20.0265 7.44398 19.9695V16.4464C7.44398 15.3708 7.82796 14.4501 8.59592 13.6842C9.36185 12.9183 10.2816 12.5353 11.3551 12.5353H12.559C13.6325 12.5353 14.5522 12.9183 15.3181 13.6842C16.0861 14.4501 16.4701 15.3708 16.4701 16.4464V19.9695ZM21.6676 18.787C21.6676 18.8012 21.5352 18.8083 21.2704 18.8083C21.0056 18.8083 19.8343 18.8083 17.7565 18.8083C17.7565 17.5902 17.7534 16.7234 17.7473 16.2081C17.7392 15.6927 17.6281 15.1559 17.4143 14.5978V14.1456C17.4143 13.7015 17.5721 13.3226 17.8879 13.0089C18.2016 12.6932 18.5876 12.5353 19.0459 12.5353H20.0359C20.4943 12.5353 20.8803 12.6932 21.194 13.0089C21.5097 13.3226 21.6676 13.7015 21.6676 14.1456V18.787ZM4.39453 9.78529C5.03823 9.78529 5.59333 9.55205 6.05981 9.08557C6.52425 8.62113 6.75648 8.06705 6.75648 7.42335C6.75648 6.77761 6.52425 6.22252 6.05981 5.75807C5.59333 5.29159 5.03823 5.05835 4.39453 5.05835C3.75083 5.05835 3.19573 5.29159 2.72925 5.75807C2.26481 6.22252 2.03259 6.77761 2.03259 7.42335C2.03259 8.06705 2.26481 8.62113 2.72925 9.08557C3.19573 9.55205 3.75083 9.78529 4.39453 9.78529ZM4.39453 6.34779C4.69601 6.34779 4.95064 6.45168 5.15842 6.65946C5.3662 6.86724 5.47009 7.12187 5.47009 7.42335C5.47009 7.72279 5.3662 7.97641 5.15842 8.18418C4.95064 8.39196 4.69601 8.49585 4.39453 8.49585C4.09305 8.49585 3.83842 8.39196 3.63064 8.18418C3.42286 7.97641 3.31898 7.72279 3.31898 7.42335C3.31898 7.12187 3.42286 6.86724 3.63064 6.65946C3.83842 6.45168 4.09305 6.34779 4.39453 6.34779Z" fill="#3554D1"/>
</svg>
